<svg width="1000" height="623" viewBox="0 0 1000 623" fill="none" xmlns="http://www.w3.org/2000/svg">
<g clip-path="url(#clip0_126_329)">
<g clip-path="url(#clip1_126_329)">
<g clip-path="url(#clip2_126_329)">
<g clip-path="url(#clip3_126_329)">
<g clip-path="url(#clip4_126_329)">
<g clip-path="url(#clip5_126_329)">
<g clip-path="url(#clip6_126_329)">
<g clip-path="url(#clip7_126_329)">
<g clip-path="url(#clip8_126_329)">
<g clip-path="url(#clip9_126_329)">
<g clip-path="url(#clip10_126_329)">
<path d="M666.778 435.435C665.823 444.1 664.424 452.595 662.582 460.919C660.74 469.243 658.488 476.646 655.827 483.127C653.166 489.609 649.755 494.761 645.593 498.581C641.431 502.47 636.689 504.415 631.367 504.415C626.045 504.415 621.201 500.321 616.834 492.134C612.536 483.946 608.442 473.132 604.553 459.691C600.732 446.181 597.252 430.932 594.114 413.943C590.907 396.954 588.076 379.692 585.619 362.157C583.095 344.69 581.014 327.633 579.376 310.985C577.671 294.337 576.34 279.838 575.385 267.488C573.338 280.179 570.984 294.337 568.323 309.961C565.662 325.654 562.524 341.551 558.907 357.654C555.223 373.824 551.198 389.653 546.831 405.141C542.532 420.629 537.893 434.48 532.912 446.693C527.863 458.838 522.507 468.56 516.844 475.861C511.181 483.23 505.211 486.914 498.934 486.914C493.271 486.914 487.608 483.059 481.945 475.349C476.282 467.708 470.789 457.644 465.467 445.158C460.077 432.672 455.062 418.753 450.423 403.401C445.783 388.118 441.45 372.732 437.425 357.244C433.468 341.756 429.988 327.087 426.986 313.236C423.984 299.386 421.63 287.821 419.924 278.542C419.924 285.501 419.856 293.245 419.719 301.774C419.515 310.234 419.412 316.307 419.412 319.991C419.412 321.628 419.344 327.121 419.208 336.468C419.003 345.816 418.423 356.971 417.468 369.935C416.444 382.967 414.943 396.885 412.965 411.691C410.986 426.497 408.052 440.245 404.163 452.936C400.342 465.558 395.6 476.202 389.937 484.867C384.274 493.532 377.281 498.206 368.957 498.888C362.338 495.886 356.778 490.803 352.275 483.639C347.771 476.475 344.019 468.049 341.017 458.36C338.015 448.74 335.661 438.437 333.955 427.452C332.317 416.467 330.987 405.721 329.964 395.214C329.008 384.707 328.428 374.95 328.224 365.943C328.087 356.937 328.019 349.602 328.019 343.939C328.019 333.978 328.599 321.424 329.759 306.277C330.919 291.062 332.829 275.13 335.49 258.482C338.151 241.834 341.665 225.186 346.032 208.538C350.33 191.89 355.55 176.982 361.69 163.814C367.899 150.645 375.063 139.899 383.183 131.575C391.37 123.251 400.786 119.089 411.43 119.089C416.41 119.089 421.732 121.921 427.395 127.584C433.058 133.247 438.721 140.65 444.384 149.793C450.047 159.004 455.574 169.272 460.964 180.598C466.286 191.924 471.369 203.319 476.213 214.781C480.989 226.244 485.22 237.229 488.904 247.736C492.588 258.243 495.591 267.181 497.91 274.55C500.571 266.499 503.915 257.152 507.94 246.508C511.897 235.864 516.298 224.777 521.142 213.246C525.987 201.783 531.309 190.457 537.108 179.268C542.976 168.146 549.048 158.151 555.325 149.281C561.671 140.479 568.084 133.315 574.566 127.789C581.116 122.33 587.7 119.601 594.319 119.601C605.986 119.601 615.981 123.934 624.305 132.599C632.629 141.264 639.623 152.488 645.286 166.27C650.949 180.121 655.452 195.609 658.795 212.734C662.139 229.928 664.731 246.951 666.574 263.804C668.416 280.588 669.576 296.315 670.053 310.985C670.531 325.654 670.77 337.492 670.77 346.498C670.77 350.114 670.77 355.095 670.77 361.44C670.77 367.786 670.701 374.95 670.565 382.933C670.428 390.915 670.019 399.41 669.337 408.416C668.655 417.423 667.802 426.429 666.778 435.435Z" fill="white"/>
</g>
</g>
</g>
</g>
</g>
</g>
</g>
<path d="M211.003 103.955V0H834.507V623.504H211.003V519.549H245.752V588.755H799.758V34.7493H245.752V103.955H211.003Z" fill="white"/>
</g>
</g>
</g>
</g>
<defs>
<clipPath id="clip0_126_329">
<rect width="1000" height="623" fill="white"/>
</clipPath>
<clipPath id="clip1_126_329">
<rect width="1000" height="623" fill="white" transform="translate(-0.605957 0.252197)"/>
</clipPath>
<clipPath id="clip2_126_329">
<rect width="997.607" height="623.504" fill="white" transform="translate(0.590332)"/>
</clipPath>
<clipPath id="clip3_126_329">
<rect width="997.607" height="623.504" fill="white" transform="translate(0.590332)"/>
</clipPath>
<clipPath id="clip4_126_329">
<rect width="342.845" height="385.326" fill="white" transform="translate(327.972 119.089)"/>
</clipPath>
<clipPath id="clip5_126_329">
<rect width="342.845" height="385.326" fill="white" transform="translate(327.972 119.089)"/>
</clipPath>
<clipPath id="clip6_126_329">
<rect width="342.845" height="385.326" fill="white" transform="translate(327.972 119.089)"/>
</clipPath>
<clipPath id="clip7_126_329">
<rect width="342.845" height="385.326" fill="white" transform="translate(327.972 119.089)"/>
</clipPath>
<clipPath id="clip8_126_329">
<rect width="342.845" height="385.326" fill="white" transform="translate(327.972 119.089)"/>
</clipPath>
<clipPath id="clip9_126_329">
<rect width="342.845" height="385.326" fill="white" transform="translate(327.972 119.089)"/>
</clipPath>
<clipPath id="clip10_126_329">
<rect width="342.845" height="385.326" fill="white" transform="translate(327.972 119.089)"/>
</clipPath>
</defs>
</svg>
